#!OML:ASF F:\VICON\USERDATA\INSTALL\SteveWalk\SteveWalk.ASF
:FULLY-SPECIFIED
:DEGREES
380
root 0.43201 16.2485 34.2287 16.5499 3.36767 0.280324
lowerback -15.2718 -0.364287 0.753538
upperback -5.35914 -0.654133 1.78355
thorax 2.89639 -0.313977 1.32929
lowerneck -4.12076 -0.0919804 0.412905
upperneck 13.3888 0.257428 -3.19835
head 4.69138 -0.0381639 -1.04018
rclavicle 5.8393e-016 1.35174e-014
rhumerus -27.0549 -9.55323 -82.8473
rradius 28.7449
rwrist -2.53322
rhand -16.244 -33.708
rfingers 7.12502
rthumb 9.9648 -63.4521
lclavicle 5.8393e-016 1.35174e-014
lhumerus -41.2718 20.7568 75.3232
lradius 15.2233
lwrist -14.4837
lhand -20.8614 -16.122
lfingers 7.12502
lthumb 5.50817 13.7864
rfemur -24.7856 -3.85194 25.0076
rtibia 33.8939
rfoot -25.1041 6.42333
rtoes -4.88886
lfemur -45.6033 2.64965 -22.161
ltibia 66.1338
lfoot -6.99159 3.65074
ltoes -3.89183
381
root 0.430863 16.2342 34.4255 16.6093 2.99643 0.183436
lowerback -15.4354 -0.207724 0.744143
upperback -5.32344 -0.449312 1.75366
thorax 3.01731 -0.212578 1.3389
lowerneck -4.06385 -0.0805689 0.455359
upperneck 13.367 0.262776 -3.15484
head 4.67512 -0.0301674 -1.03329
rclavicle 1.97542e-015 3.97569e-015
rhumerus -26.1088 -7.94744 -83.4852
rradius 29.9037
rwrist -3.80698
rhand -16.4294 -32.7795
rfingers 7.12502
rthumb 9.78589 -62.5321
lclavicle 1.97542e-015 3.97569e-015
lhumerus -42.7472 22.72 73.0685
lradius 14.4843
lwrist -17.3118
lhand -20.3178 -15.6788
lfingers 7.12502
lthumb 6.03302 14.2153
rfemur -24.021 -4.20211 25.1132
rtibia 33.7398
rfoot -25.5686 7.2345
rtoes -3.12759
lfemur -46.3712 2.98322 -22.3017
ltibia 64.0673
lfoot -7.38287 4.17704
ltoes -9.44563
382
root 0.435979 16.2101 34.6217 16.6578 2.7273 -0.0205064
lowerback -15.5364 -0.0581715 0.963647
upperback -5.29348 -0.286437 1.72092
thorax 3.0984 -0.13313 1.20937
lowerneck -4.13114 -0.0518066 0.44551
upperneck 13.3635 0.288143 -3.04089
head 4.68588 -0.0120608 -0.995271
rclavicle -6.89534e-015 -1.35174e-014
rhumerus -25.1563 -6.46399 -84.0724
rradius 31.0905
rwrist -4.97899
rhand -15.4672 -33.789
rfingers 7.12502
rthumb 10.7142 -63.4958
lclavicle -6.89534e-015 -1.35174e-014
lhumerus -44.2169 24.2276 70.961
lradius 13.8493
lwrist -19.5061
lhand -20.0597 -15.3391
lfingers 7.12502
lthumb 6.28221 14.5478
rfemur -23.1958 -5.0162 25.3674
rtibia 33.5862
rfoot -26.1297 8.31343
rtoes -1.43971
lfemur -47.0224 3.21827 -22.3299
ltibia 61.7839
lfoot -7.75833 4.91453
ltoes -12.8546
383
root 0.44427 16.19 34.8118 16.7057 2.37995 0.0639872
lowerback -15.5208 0.0230539 0.879921
upperback -5.28351 -0.163369 1.62435
thorax 3.09882 -0.0725589 1.17723
lowerneck -4.1809 -0.0155643 0.516207
upperneck 13.3469 0.33309 -3.06047
head 4.69003 0.0120113 -1.01061
rclavicle -7.81472e-015 7.95139e-016
rhumerus -24.2844 -4.93596 -84.6276
rradius 32.4472
rwrist -5.83392
rhand -16.6939 -31.9409
rfingers 7.12502
rthumb 9.53065 -61.7054
lclavicle -7.81472e-015 7.95139e-016
lhumerus -45.7529 25.4133 69.0463
lradius 13.4496
lwrist -20.9691
lhand -19.9853 -15.0643
lfingers 7.12502
lthumb 6.35402 14.8204
rfemur -22.3468 -5.84464 25.272
rtibia 33.437
rfoot -26.6487 9.3365
rtoes 0.319213
lfemur -47.518 3.33908 -22.6566
ltibia 59.2266
lfoot -8.02306 5.76522
ltoes -12.0459
384
root 0.446489 16.1769 34.9952 16.6819 1.74858 0.277318
lowerback -15.3888 0.132681 0.475359
upperback -5.22185 0.0440212 1.55758
thorax 3.09018 0.0311866 1.37243
lowerneck -4.33168 -0.00305514 0.489681
upperneck 13.4318 0.352437 -3.04059
head 4.74197 0.0193378 -0.999585
rclavicle 1.93194e-015 -4.77083e-015
rhumerus -23.331 -3.37648 -85.0106
rradius 33.7294
rwrist -6.48569
rhand -16.4217 -32.3919
rfingers 7.12502
rthumb 9.79337 -62.1442
lclavicle 1.93194e-015 -4.77083e-015
lhumerus -47.2698 26.2409 67.5302
lradius 13.4344
lwrist -21.7883
lhand -19.7456 -14.4357
lfingers 7.12502
lthumb 6.58539 15.442
rfemur -21.3886 -6.0796 24.9288
rtibia 33.2387
rfoot -27.035 9.56591
rtoes 0.16186
lfemur -47.817 3.6136 -23.096
ltibia 56.4209
lfoot -8.09529 6.52999
ltoes -11.8995
385
root 0.446003 16.16 35.1775 16.6465 1.21637 0.257574
lowerback -15.1942 0.244986 0.284756
upperback -5.16182 0.220804 1.55773
thorax 3.04506 0.119315 1.51032
lowerneck -4.59035 0.0372877 0.369018
upperneck 13.612 0.398723 -2.85001
head 4.8418 0.0437711 -0.919207
rclavicle 8.01351e-015 -2.3059e-014
rhumerus -22.4049 -1.94954 -85.3202
rradius 34.8961
rwrist -7.36445
rhand -16.3892 -32.5423
rfingers 7.12502
rthumb 9.82472 -62.2931
lclavicle 8.01351e-015 -2.3059e-014
lhumerus -48.5461 26.505 66.4894
lradius 13.5784
lwrist -21.9887
lhand -19.2428 -13.6084
lfingers 7.12502
lthumb 7.07079 16.2535
rfemur -20.4197 -6.15032 24.8087
rtibia 32.9492
rfoot -27.2147 9.7441
rtoes 0.02529
lfemur -47.9943 3.85075 -23.2037
ltibia 53.3576
lfoot -7.95658 7.20395
ltoes -12.7557
